<svg version="1.1" id="Layer_1" xmlns="http://www.w3.org/2000/svg" xmlns:xlink="http://www.w3.org/1999/xlink" x="0px" y="0px"
	 width="100%" viewBox="0 0 1120 460" enable-background="new 0 0 1120 460" xml:space="preserve">
<path fill="none" opacity="1.000000" stroke="none" 
	d="
M769.000000,461.000000 
	C512.666687,461.000000 256.833344,461.000000 1.000000,461.000000 
	C1.000000,307.666656 1.000000,154.333328 1.000000,1.000000 
	C374.333344,1.000000 747.666687,1.000000 1121.000000,1.000000 
	C1121.000000,154.333328 1121.000000,307.666656 1121.000000,461.000000 
	C1003.833313,461.000000 886.666687,461.000000 769.000000,461.000000 
M439.500000,22.999729 
	C333.503082,22.999800 227.506149,22.971649 121.509247,23.013247 
	C76.468048,23.030922 41.031292,58.535873 41.011139,103.632576 
	C40.972561,189.963348 40.963314,276.294189 41.015068,362.624939 
	C41.041904,407.393707 76.546188,442.978363 121.266747,442.983276 
	C416.424683,443.015625 711.582642,443.015717 1006.740601,442.983124 
	C1051.458374,442.978180 1086.959351,407.387665 1086.985352,362.617523 
	C1087.035522,276.120087 1087.028076,189.622589 1086.931152,103.125252 
	C1086.925171,97.834206 1086.410156,92.442970 1085.318726,87.269943 
	C1077.213989,48.859676 1045.229980,23.009174 1005.983337,23.006220 
	C817.488892,22.992027 628.994446,22.999773 439.500000,22.999729 
z"/>
<path fill="#000000" opacity="1.000000" stroke="none" 
	d="
M440.000000,22.999729 
	C628.994446,22.999773 817.488892,22.992027 1005.983337,23.006220 
	C1045.229980,23.009174 1077.213989,48.859676 1085.318726,87.269943 
	C1086.410156,92.442970 1086.925171,97.834206 1086.931152,103.125252 
	C1087.028076,189.622589 1087.035522,276.120087 1086.985352,362.617523 
	C1086.959351,407.387665 1051.458374,442.978180 1006.740601,442.983124 
	C711.582642,443.015717 416.424683,443.015625 121.266747,442.983276 
	C76.546188,442.978363 41.041904,407.393707 41.015068,362.624939 
	C40.963314,276.294189 40.972561,189.963348 41.011139,103.632576 
	C41.031292,58.535873 76.468048,23.030922 121.509247,23.013247 
	C227.506149,22.971649 333.503082,22.999800 440.000000,22.999729 
M494.500000,42.999210 
	C370.680176,42.999245 246.860352,42.995880 123.040535,43.001434 
	C86.971283,43.003052 61.004097,68.978180 61.001362,105.056068 
	C60.994934,189.880341 61.104771,274.704895 60.888241,359.528625 
	C60.854828,372.619934 66.248940,382.275574 76.384926,389.682007 
	C89.663750,399.384949 104.900383,402.978180 121.072327,402.979736 
	C416.040833,403.007996 711.009338,403.006042 1005.977844,402.989990 
	C1029.588257,402.988708 1046.948364,385.579620 1046.992065,361.961609 
	C1047.031128,340.797302 1047.000610,319.632812 1047.000610,298.468414 
	C1047.000610,233.308701 1047.034058,168.148956 1046.975952,102.989304 
	C1046.961548,86.816917 1043.354858,71.584534 1033.633423,58.317493 
	C1026.209717,48.186165 1016.528564,42.876724 1003.445618,42.889523 
	C834.130554,43.055176 664.815247,42.999214 494.500000,42.999210 
z"/>
<path fill="#FFFFFF" opacity="1.000000" stroke="none" 
	d="
M495.000000,42.999210 
	C664.815247,42.999214 834.130554,43.055176 1003.445618,42.889523 
	C1016.528564,42.876724 1026.209717,48.186165 1033.633423,58.317493 
	C1043.354858,71.584534 1046.961548,86.816917 1046.975952,102.989304 
	C1047.034058,168.148956 1047.000610,233.308701 1047.000610,298.468414 
	C1047.000610,319.632812 1047.031128,340.797302 1046.992065,361.961609 
	C1046.948364,385.579620 1029.588257,402.988708 1005.977844,402.989990 
	C711.009338,403.006042 416.040833,403.007996 121.072327,402.979736 
	C104.900383,402.978180 89.663750,399.384949 76.384926,389.682007 
	C66.248940,382.275574 60.854828,372.619934 60.888241,359.528625 
	C61.104771,274.704895 60.994934,189.880341 61.001362,105.056068 
	C61.004097,68.978180 86.971283,43.003052 123.040535,43.001434 
	C246.860352,42.995880 370.680176,42.999245 495.000000,42.999210 
M747.284119,296.002869 
	C749.075989,296.002869 750.867859,296.002869 752.529602,296.002869 
	C766.456604,247.314362 780.233154,199.151886 794.056702,150.825150 
	C782.574707,150.825150 771.641052,150.825150 760.523193,150.825150 
	C752.466370,184.621811 744.455688,218.224792 736.445007,251.827759 
	C736.039490,251.779892 735.634033,251.732010 735.228516,251.684143 
	C726.391479,218.006470 717.554504,184.328812 708.732910,150.709869 
	C698.945435,150.709869 689.646912,150.709869 679.936279,150.709869 
	C671.090698,184.322144 662.250916,217.912735 653.411072,251.503311 
	C652.987488,251.462830 652.563843,251.422348 652.140198,251.381866 
	C644.132324,217.845490 636.124390,184.309113 628.152832,150.924866 
	C616.813354,150.924866 605.944946,150.924866 594.618713,150.924866 
	C608.529785,199.540451 622.312500,247.707626 636.093750,295.869446 
	C646.205627,295.869446 656.006775,295.869446 666.117249,295.869446 
	C675.344543,264.192322 684.561035,232.552170 693.777527,200.912018 
	C694.151123,200.927979 694.524780,200.943954 694.898376,200.959930 
	C704.108154,232.584534 713.317932,264.209137 722.576965,296.002869 
	C730.707397,296.002869 738.521301,296.002869 747.284119,296.002869 
M281.977386,189.612305 
	C278.891907,184.123840 276.384827,178.196793 272.615997,173.226501 
	C259.655457,156.134247 241.814835,148.774948 220.693420,148.000198 
	C192.599442,146.969711 168.146347,161.984802 157.230835,187.763885 
	C150.298859,204.135040 149.605698,221.262207 151.953705,238.665497 
	C157.725174,281.443298 193.789749,305.045044 235.042328,296.117889 
	C243.187759,294.355225 247.541306,295.643005 251.485458,302.231964 
	C252.792267,304.415100 254.946411,307.542053 256.869781,307.658875 
	C266.191467,308.225006 275.566376,307.914337 285.794006,307.914337 
	C278.387817,298.558228 271.698761,290.108063 265.645966,282.461700 
	C270.495911,275.253876 275.960144,268.977203 279.364990,261.732605 
	C290.288269,238.490845 289.997528,214.498108 281.977386,189.612305 
M309.158203,240.499878 
	C309.179199,246.665573 309.000031,252.839584 309.255310,258.995575 
	C310.471039,288.317017 334.908234,305.033478 361.555695,294.844604 
	C369.781067,291.699554 375.378204,285.619995 380.435974,278.267120 
	C380.435974,284.119232 380.435974,289.971344 380.435974,295.704926 
	C390.637665,295.704926 400.224976,295.704926 409.716858,295.704926 
	C409.716858,259.167755 409.716858,222.932938 409.716858,186.599609 
	C399.481598,186.599609 389.564880,186.599609 379.223816,186.599609 
	C379.223816,188.658066 379.231689,190.450516 379.222595,192.242874 
	C379.120178,212.402908 379.156677,232.565125 378.845123,252.721954 
	C378.709686,261.486481 371.074127,269.540314 362.397125,270.928223 
	C352.802887,272.462860 344.697205,268.102844 341.777435,259.255920 
	C340.658936,255.866821 340.398376,252.076401 340.373108,248.464478 
	C340.241180,229.634323 340.310944,210.802765 340.310516,191.971695 
	C340.310486,190.213181 340.310486,188.454681 340.310486,186.686371 
	C329.535767,186.686371 319.469238,186.686371 309.158203,186.686371 
	C309.158203,204.528687 309.158203,222.014282 309.158203,240.499878 
M489.352600,188.060898 
	C489.352600,195.651749 489.352600,203.242599 489.352600,211.235138 
	C506.612091,211.235138 523.184082,211.235138 540.691284,211.235138 
	C539.221191,213.204620 538.324402,214.491547 537.342041,215.709518 
	C522.606812,233.979065 508.389526,252.705978 492.883240,270.296478 
	C485.617004,278.539429 487.898651,286.983459 487.408020,295.635742 
	C518.644409,295.635742 549.205261,295.635742 579.712524,295.635742 
	C579.712524,287.350342 579.712524,279.440216 579.712524,270.904846 
	C562.542419,270.904846 545.718567,270.904846 528.221069,270.904846 
	C529.540527,269.110657 530.288818,268.041595 531.088989,267.012817 
	C545.707153,248.217224 560.351624,229.441956 574.919556,210.607529 
	C576.188049,208.967545 577.711243,206.990433 577.826904,205.091354 
	C578.198547,198.991943 577.965149,192.855667 577.965149,186.711441 
	C577.116211,186.530121 576.653259,186.344955 576.190247,186.344696 
	C548.370972,186.329300 520.551636,186.319778 492.732422,186.363007 
	C491.661530,186.364670 490.591400,186.887543 489.352600,188.060898 
M956.040833,281.528809 
	C956.040833,278.124817 956.040833,274.720856 956.040833,270.891785 
	C938.401428,270.891785 921.685486,270.891785 904.246582,270.891785 
	C905.552124,269.096924 906.363831,267.912994 907.243469,266.781860 
	C921.757751,248.117386 936.291504,229.468002 950.781372,210.784592 
	C951.978760,209.240738 953.696289,207.521164 953.792603,205.805786 
	C954.151917,199.406006 953.936096,192.973923 953.936096,186.656769 
	C924.082947,186.656769 894.860291,186.656769 865.599243,186.656769 
	C865.599243,194.903412 865.599243,202.816788 865.599243,211.331787 
	C882.555054,211.331787 899.229797,211.331787 916.625183,211.331787 
	C915.297302,213.118408 914.558228,214.187637 913.744385,215.196609 
	C897.755554,235.018997 881.747925,254.826309 865.786438,274.670715 
	C864.781067,275.920715 863.485718,277.418304 863.414978,278.854370 
	C863.139221,284.454346 863.302551,290.075989 863.302551,295.702728 
	C894.468506,295.702728 925.029419,295.702728 956.040833,295.702728 
	C956.040833,291.110931 956.040833,286.813629 956.040833,281.528809 
M809.678345,208.499756 
	C809.678345,237.584915 809.678345,266.670074 809.678345,295.645874 
	C820.306091,295.645874 830.368591,295.645874 840.409180,295.645874 
	C840.409180,259.079376 840.409180,222.875153 840.409180,186.497498 
	C830.134888,186.497498 820.199280,186.497498 809.678406,186.497498 
	C809.678406,193.598938 809.678406,200.549408 809.678345,208.499756 
M437.736450,186.327805 
	C433.677643,185.590332 433.683319,188.088303 433.688690,191.049789 
	C433.749634,224.680603 433.724426,258.311584 433.738312,291.942535 
	C433.738831,293.205200 433.902924,294.467804 433.983826,295.630615 
	C444.413605,295.630615 454.454498,295.630615 464.430115,295.630615 
	C464.430115,259.055756 464.430115,222.857895 464.430115,186.328003 
	C455.621735,186.328003 447.156799,186.328003 437.736450,186.327805 
M832.586548,171.369064 
	C833.446045,170.867279 834.350830,170.429031 835.157776,169.853531 
	C841.083435,165.627213 843.334595,158.882950 841.045349,152.317307 
	C838.787231,145.840988 831.990417,141.407715 824.655945,141.627213 
	C817.478516,141.842010 810.785706,146.636063 809.077881,152.785675 
	C807.126831,159.811493 809.737732,166.558563 816.038635,170.433929 
	C821.072815,173.530243 826.436401,173.426132 832.586548,171.369064 
M449.450806,172.835602 
	C457.825409,172.246033 463.807251,167.870529 465.500671,161.095627 
	C467.151794,154.489960 464.166626,147.558334 458.156799,144.042770 
	C452.133728,140.519455 443.861084,141.012146 438.487915,145.214218 
	C433.330566,149.247482 431.001038,156.043823 433.292328,162.164612 
	C435.877502,169.070404 441.199890,172.571732 449.450806,172.835602 
z"/>
<path fill="#050A18" opacity="1.000000" stroke="none" 
	d="
M746.809631,296.002869 
	C738.521301,296.002869 730.707397,296.002869 722.576965,296.002869 
	C713.317932,264.209137 704.108154,232.584534 694.898376,200.959930 
	C694.524780,200.943954 694.151123,200.927979 693.777527,200.912018 
	C684.561035,232.552170 675.344543,264.192322 666.117249,295.869446 
	C656.006775,295.869446 646.205627,295.869446 636.093750,295.869446 
	C622.312500,247.707626 608.529785,199.540451 594.618713,150.924866 
	C605.944946,150.924866 616.813354,150.924866 628.152832,150.924866 
	C636.124390,184.309113 644.132324,217.845490 652.140198,251.381866 
	C652.563843,251.422348 652.987488,251.462830 653.411072,251.503311 
	C662.250916,217.912735 671.090698,184.322144 679.936279,150.709869 
	C689.646912,150.709869 698.945435,150.709869 708.732910,150.709869 
	C717.554504,184.328812 726.391479,218.006470 735.228516,251.684143 
	C735.634033,251.732010 736.039490,251.779892 736.445007,251.827759 
	C744.455688,218.224792 752.466370,184.621811 760.523193,150.825150 
	C771.641052,150.825150 782.574707,150.825150 794.056702,150.825150 
	C780.233154,199.151886 766.456604,247.314362 752.529602,296.002869 
	C750.867859,296.002869 749.075989,296.002869 746.809631,296.002869 
z"/>
<path fill="#050A18" opacity="1.000000" stroke="none" 
	d="
M282.101685,189.981720 
	C289.997528,214.498108 290.288269,238.490845 279.364990,261.732605 
	C275.960144,268.977203 270.495911,275.253876 265.645966,282.461700 
	C271.698761,290.108063 278.387817,298.558228 285.794006,307.914337 
	C275.566376,307.914337 266.191467,308.225006 256.869781,307.658875 
	C254.946411,307.542053 252.792267,304.415100 251.485458,302.231964 
	C247.541306,295.643005 243.187759,294.355225 235.042328,296.117889 
	C193.789749,305.045044 157.725174,281.443298 151.953705,238.665497 
	C149.605698,221.262207 150.298859,204.135040 157.230835,187.763885 
	C168.146347,161.984802 192.599442,146.969711 220.693420,148.000198 
	C241.814835,148.774948 259.655457,156.134247 272.615997,173.226501 
	C276.384827,178.196793 278.891907,184.123840 282.101685,189.981720 
M255.882172,221.617142 
	C255.198837,212.296600 254.107697,203.113724 249.826721,194.547974 
	C238.458603,171.801590 205.982422,169.226242 191.359161,189.987946 
	C184.642914,199.523468 182.832138,210.463913 182.711426,221.719269 
	C182.576050,234.343460 184.240692,246.637512 192.132492,257.193146 
	C199.873840,267.547546 215.366531,272.953552 225.825638,268.761261 
	C219.975830,260.999908 214.168182,253.294540 207.732025,244.755264 
	C212.423920,244.755264 215.797913,245.152878 219.046387,244.682831 
	C230.057266,243.089661 238.893539,245.707611 244.023941,256.453369 
	C244.283325,256.996643 244.983475,257.329529 245.626434,257.889221 
	C253.956558,247.441208 255.312439,235.101852 255.882172,221.617142 
z"/>
<path fill="#060B19" opacity="1.000000" stroke="none" 
	d="
M309.158203,239.999878 
	C309.158203,222.014282 309.158203,204.528687 309.158203,186.686371 
	C319.469238,186.686371 329.535767,186.686371 340.310486,186.686371 
	C340.310486,188.454681 340.310486,190.213181 340.310516,191.971695 
	C340.310944,210.802765 340.241180,229.634323 340.373108,248.464478 
	C340.398376,252.076401 340.658936,255.866821 341.777435,259.255920 
	C344.697205,268.102844 352.802887,272.462860 362.397125,270.928223 
	C371.074127,269.540314 378.709686,261.486481 378.845123,252.721954 
	C379.156677,232.565125 379.120178,212.402908 379.222595,192.242874 
	C379.231689,190.450516 379.223816,188.658066 379.223816,186.599609 
	C389.564880,186.599609 399.481598,186.599609 409.716858,186.599609 
	C409.716858,222.932938 409.716858,259.167755 409.716858,295.704926 
	C400.224976,295.704926 390.637665,295.704926 380.435974,295.704926 
	C380.435974,289.971344 380.435974,284.119232 380.435974,278.267120 
	C375.378204,285.619995 369.781067,291.699554 361.555695,294.844604 
	C334.908234,305.033478 310.471039,288.317017 309.255310,258.995575 
	C309.000031,252.839584 309.179199,246.665573 309.158203,239.999878 
z"/>
<path fill="#070C19" opacity="1.000000" stroke="none" 
	d="
M489.436768,187.614227 
	C490.591400,186.887543 491.661530,186.364670 492.732422,186.363007 
	C520.551636,186.319778 548.370972,186.329300 576.190247,186.344696 
	C576.653259,186.344955 577.116211,186.530121 577.965149,186.711441 
	C577.965149,192.855667 578.198547,198.991943 577.826904,205.091354 
	C577.711243,206.990433 576.188049,208.967545 574.919556,210.607529 
	C560.351624,229.441956 545.707153,248.217224 531.088989,267.012817 
	C530.288818,268.041595 529.540527,269.110657 528.221069,270.904846 
	C545.718567,270.904846 562.542419,270.904846 579.712524,270.904846 
	C579.712524,279.440216 579.712524,287.350342 579.712524,295.635742 
	C549.205261,295.635742 518.644409,295.635742 487.408020,295.635742 
	C487.898651,286.983459 485.617004,278.539429 492.883240,270.296478 
	C508.389526,252.705978 522.606812,233.979065 537.342041,215.709518 
	C538.324402,214.491547 539.221191,213.204620 540.691284,211.235138 
	C523.184082,211.235138 506.612091,211.235138 489.352600,211.235138 
	C489.352600,203.242599 489.352600,195.651749 489.436768,187.614227 
z"/>
<path fill="#070C1A" opacity="1.000000" stroke="none" 
	d="
M956.040833,282.022583 
	C956.040833,286.813629 956.040833,291.110931 956.040833,295.702728 
	C925.029419,295.702728 894.468506,295.702728 863.302551,295.702728 
	C863.302551,290.075989 863.139221,284.454346 863.414978,278.854370 
	C863.485718,277.418304 864.781067,275.920715 865.786438,274.670715 
	C881.747925,254.826309 897.755554,235.018997 913.744385,215.196609 
	C914.558228,214.187637 915.297302,213.118408 916.625183,211.331787 
	C899.229797,211.331787 882.555054,211.331787 865.599243,211.331787 
	C865.599243,202.816788 865.599243,194.903412 865.599243,186.656769 
	C894.860291,186.656769 924.082947,186.656769 953.936096,186.656769 
	C953.936096,192.973923 954.151917,199.406006 953.792603,205.805786 
	C953.696289,207.521164 951.978760,209.240738 950.781372,210.784592 
	C936.291504,229.468002 921.757751,248.117386 907.243469,266.781860 
	C906.363831,267.912994 905.552124,269.096924 904.246582,270.891785 
	C921.685486,270.891785 938.401428,270.891785 956.040833,270.891785 
	C956.040833,274.720856 956.040833,278.124817 956.040833,282.022583 
z"/>
<path fill="#070C19" opacity="1.000000" stroke="none" 
	d="
M809.678345,207.999817 
	C809.678406,200.549408 809.678406,193.598938 809.678406,186.497498 
	C820.199280,186.497498 830.134888,186.497498 840.409180,186.497498 
	C840.409180,222.875153 840.409180,259.079376 840.409180,295.645874 
	C830.368591,295.645874 820.306091,295.645874 809.678345,295.645874 
	C809.678345,266.670074 809.678345,237.584915 809.678345,207.999817 
z"/>
<path fill="#070B19" opacity="1.000000" stroke="none" 
	d="
M438.214172,186.327911 
	C447.156799,186.328003 455.621735,186.328003 464.430115,186.328003 
	C464.430115,222.857895 464.430115,259.055756 464.430115,295.630615 
	C454.454498,295.630615 444.413605,295.630615 433.983826,295.630615 
	C433.902924,294.467804 433.738831,293.205200 433.738312,291.942535 
	C433.724426,258.311584 433.749634,224.680603 433.688690,191.049789 
	C433.683319,188.088303 433.677643,185.590332 438.214172,186.327911 
z"/>
<path fill="#070C1A" opacity="1.000000" stroke="none" 
	d="
M832.242981,171.559906 
	C826.436401,173.426132 821.072815,173.530243 816.038635,170.433929 
	C809.737732,166.558563 807.126831,159.811493 809.077881,152.785675 
	C810.785706,146.636063 817.478516,141.842010 824.655945,141.627213 
	C831.990417,141.407715 838.787231,145.840988 841.045349,152.317307 
	C843.334595,158.882950 841.083435,165.627213 835.157776,169.853531 
	C834.350830,170.429031 833.446045,170.867279 832.242981,171.559906 
z"/>
<path fill="#070C1A" opacity="1.000000" stroke="none" 
	d="
M449.025299,172.834442 
	C441.199890,172.571732 435.877502,169.070404 433.292328,162.164612 
	C431.001038,156.043823 433.330566,149.247482 438.487915,145.214218 
	C443.861084,141.012146 452.133728,140.519455 458.156799,144.042770 
	C464.166626,147.558334 467.151794,154.489960 465.500671,161.095627 
	C463.807251,167.870529 457.825409,172.246033 449.025299,172.834442 
z"/>
<path fill="#FCFDFD" opacity="1.000000" stroke="none" 
	d="
M255.897491,222.078308 
	C255.312439,235.101852 253.956558,247.441208 245.626434,257.889221 
	C244.983475,257.329529 244.283325,256.996643 244.023941,256.453369 
	C238.893539,245.707611 230.057266,243.089661 219.046387,244.682831 
	C215.797913,245.152878 212.423920,244.755264 207.732025,244.755264 
	C214.168182,253.294540 219.975830,260.999908 225.825638,268.761261 
	C215.366531,272.953552 199.873840,267.547546 192.132492,257.193146 
	C184.240692,246.637512 182.576050,234.343460 182.711426,221.719269 
	C182.832138,210.463913 184.642914,199.523468 191.359161,189.987946 
	C205.982422,169.226242 238.458603,171.801590 249.826721,194.547974 
	C254.107697,203.113724 255.198837,212.296600 255.897491,222.078308 
z"/>
</svg>